<?xml version="1.0" encoding="UTF-8"?>
<svg version="1.1" xmlns="http://www.w3.org/2000/svg" width="3024" height="1642">
<path d="M0 0 C997.92 0 1995.84 0 3024 0 C3024 541.86 3024 1083.72 3024 1642 C2026.08 1642 1028.16 1642 0 1642 C0 1100.14 0 558.28 0 0 Z " fill="#32215F" transform="translate(0,0)"/>
<path d="M0 0 C0.73117044 -0.00177501 1.46234088 -0.00355002 2.21566801 -0.00537882 C4.68985269 -0.01014676 7.16397977 -0.00773908 9.63816726 -0.00541991 C11.4279346 -0.00737165 13.21770151 -0.00976003 15.00746775 -0.01254788 C19.96290157 -0.01897332 24.91831924 -0.01910748 29.87375643 -0.01827047 C35.2508777 -0.01843947 40.62799309 -0.02433996 46.00511146 -0.02951133 C56.68670717 -0.03885598 67.36829874 -0.04276251 78.04989803 -0.0450303 C90.83734142 -0.04798751 103.62477928 -0.05668204 116.41221977 -0.06544458 C147.32334024 -0.08630915 178.2344616 -0.09676506 209.14558747 -0.10557419 C219.38067433 -0.10850735 229.61576098 -0.11187713 239.8508476 -0.1155414 C240.57271456 -0.11579969 241.29458153 -0.11605798 242.03832325 -0.1163241 C244.95863565 -0.1173703 247.87894806 -0.11841872 250.79926047 -0.11946992 C300.75206309 -0.13743522 350.70486605 -0.15281504 400.65767145 -0.16022895 C404.58216623 -0.16081293 408.50666101 -0.16141019 412.43115579 -0.16200657 C413.59891116 -0.16218375 413.59891116 -0.16218375 414.79025754 -0.16236451 C422.6777337 -0.16356191 430.56520986 -0.16477067 438.45268602 -0.16599704 C440.0341612 -0.16624227 441.61563639 -0.16648613 443.19711158 -0.16672861 C493.99368289 -0.17451917 544.79023111 -0.19690403 595.58679233 -0.22940504 C632.08065055 -0.25274692 668.57450419 -0.27430064 705.06836975 -0.28141135 C705.81870097 -0.28155837 706.5690322 -0.28170539 707.34210074 -0.28185687 C723.81289088 -0.28504152 740.28368099 -0.28709253 756.7544714 -0.28808442 C763.38149329 -0.28849916 770.00851516 -0.28905406 776.63553703 -0.28964633 C777.7234805 -0.28973733 777.7234805 -0.28973733 778.83340263 -0.28983017 C802.20748535 -0.29184708 825.58154082 -0.30609229 848.95561403 -0.32659133 C873.15064629 -0.34773512 897.3456395 -0.35453396 921.54068001 -0.34471754 C935.49609734 -0.33948873 949.45140648 -0.34544502 963.40680831 -0.36725221 C972.72047574 -0.38070991 982.03406829 -0.37972801 991.34773638 -0.36685025 C996.65990554 -0.35992005 1001.97186713 -0.35939814 1007.28401817 -0.37641034 C1012.11473302 -0.39175521 1016.94507244 -0.38875599 1021.77577585 -0.37100006 C1023.51433494 -0.36784496 1025.25292233 -0.37142344 1026.99144904 -0.38249181 C1046.01186057 -0.49571682 1046.01186057 -0.49571682 1053.06779182 6.16395742 C1053.51122932 6.83298085 1053.95466682 7.50200429 1054.41154182 8.19130117 C1055.10763557 9.19870351 1055.10763557 9.19870351 1055.81779182 10.22645742 C1057.82855933 13.72375662 1058.0373482 16.56207354 1058.04034299 20.51165956 C1058.04361518 21.63846108 1058.04688737 22.76526261 1058.05025873 23.92620963 C1058.04803329 25.79483285 1058.04803329 25.79483285 1058.0457629 27.70120603 C1058.04771511 29.0373297 1058.05010368 30.3734528 1058.05289087 31.709575 C1058.05931036 35.40545128 1058.05945094 39.10130588 1058.05861346 42.79718668 C1058.05878257 46.80892552 1058.06468439 50.8206565 1058.06985432 54.83239144 C1058.07919536 62.80012642 1058.08310489 70.76785585 1058.08537328 78.73559562 C1058.08833144 88.27487352 1058.09702655 97.81414401 1058.10578757 107.35341803 C1058.12664855 130.41267952 1058.13710424 153.4719423 1058.14591717 176.53121103 C1058.1501212 187.43556338 1058.15534351 198.33991519 1058.1606017 209.24426708 C1058.17849304 246.55632814 1058.1934901 283.86838936 1058.20092189 321.18045408 C1058.20139665 323.52365629 1058.20187254 325.8668585 1058.20234955 328.21006071 C1058.20270412 329.95312202 1058.20270412 329.95312202 1058.20306585 331.73139669 C1058.20426707 337.61907318 1058.20548251 343.50674968 1058.20670784 349.39442617 C1058.20694799 350.56286251 1058.20718814 351.73129884 1058.20743556 352.93514234 C1058.21533065 390.82911695 1058.23876622 428.72306027 1058.27126378 466.61702121 C1058.30554325 506.66175255 1058.32527128 546.70646557 1058.32856613 586.75121182 C1058.32898369 591.14521129 1058.32946325 595.53921074 1058.32998931 599.93321019 C1058.33011251 601.01517071 1058.3302357 602.09713123 1058.33036262 603.21187843 C1058.33269697 620.64153422 1058.34837002 638.07115374 1058.36883116 655.50079659 C1058.3890632 673.01280074 1058.39457889 690.52476122 1058.38506053 708.03677489 C1058.37983538 718.44623749 1058.38577079 728.85555498 1058.4075952 739.26499677 C1058.42106794 746.2150294 1058.42005759 753.16496176 1058.40719324 760.11499532 C1058.40027306 764.07718471 1058.39970697 768.03909599 1058.41675333 772.00126095 C1058.43214029 775.60705147 1058.4290546 779.21233994 1058.41134305 782.81811549 C1058.40671588 784.72335106 1058.42169129 786.62860362 1058.43750283 788.5337792 C1058.37664236 796.05015238 1057.6476374 802.83893867 1052.53505738 808.70930917 C1047.14058774 813.59431158 1041.49072428 814.37865819 1034.44933748 814.38180083 C1033.71420855 814.38485393 1032.97907962 814.38790702 1032.22167405 814.39105264 C1029.75202828 814.39886216 1027.28262659 814.39241677 1024.81297958 814.38607007 C1023.01941216 814.38876278 1021.22584587 814.39233023 1019.43228173 814.39669454 C1014.4802737 814.40617878 1009.52833897 814.40314342 1004.57632727 814.398139 C999.19773583 814.39488058 993.81916033 814.40314804 988.44057393 814.40995735 C979.00610008 814.42028061 969.57164675 814.42309712 960.13716781 814.42104512 C946.1079351 814.41800119 932.07872519 814.42630557 918.04949691 814.43679438 C891.53875286 814.45616045 865.0280169 814.46176479 838.51726665 814.46290849 C835.59251536 814.46303798 832.66776407 814.46317386 829.74301279 814.46331531 C829.01724639 814.46334932 828.29148 814.46338333 827.54372068 814.46341837 C811.46645438 814.464235 795.38918965 814.46861394 779.31192418 814.473627 C772.69355066 814.47568368 766.07517711 814.47766373 759.45680356 814.4796595 C758.72554965 814.47988068 757.99429573 814.48010186 757.24088261 814.48032974 C715.33238962 814.49297918 673.42389767 814.50122782 631.51540267 814.50031263 C629.94679402 814.50028107 628.37818536 814.5002496 626.80957671 814.50021821 C619.72729811 814.50007144 612.64501952 814.4998951 605.56274093 814.49971044 C602.4045139 814.49962819 599.24628688 814.4995479 596.08805986 814.49946781 C594.50730992 814.49942702 592.92655998 814.49938498 591.34581005 814.49934169 C541.35273459 814.49798098 491.35968746 814.51261911 441.36661994 814.54042226 C428.76960274 814.54742414 416.17258551 814.55436299 403.57556808 814.56095105 C402.79994922 814.5613568 402.02433037 814.56176255 401.22520791 814.56218059 C377.32567689 814.57460762 353.42614819 814.58214113 329.52661407 814.58466703 C328.77643067 814.58474693 328.02624726 814.58482683 327.25333103 814.58490915 C310.78620943 814.58661558 294.31908797 814.58713814 277.8519663 814.5865684 C271.9599719 814.58637543 266.06797751 814.58627134 260.17598311 814.58621094 C258.71017237 814.58619511 257.24436164 814.5861747 255.77855091 814.58614969 C232.40915569 814.58579685 209.03978469 814.59720094 185.67039641 814.61445733 C161.48370591 814.63222647 137.29705687 814.63541299 113.11036266 814.62183307 C99.15916538 814.614423 85.20807427 814.61816312 71.25688816 814.63771775 C61.94741276 814.64966738 52.63801472 814.64718286 43.32854295 814.63277675 C38.01800382 814.62497122 32.70767098 814.62358354 27.39714594 814.63969146 C22.56911328 814.65420825 17.74145941 814.65042522 12.91344383 814.63184372 C11.17474351 814.6283917 9.43601383 814.63168843 7.69734336 814.64244614 C-10.18941744 814.7457337 -10.18941744 814.7457337 -16.58660176 808.71692725 C-20.80363891 804.04423824 -22.33775268 799.69117214 -22.34145784 793.48998308 C-22.34973707 791.79050446 -22.34973707 791.79050446 -22.35818356 790.05669293 C-22.35407293 788.81430795 -22.34996229 787.57192297 -22.34572709 786.29188997 C-22.34842024 784.95142595 -22.35198795 783.61096346 -22.35635155 782.27050385 C-22.36582988 778.57188569 -22.36280236 774.87336576 -22.35779601 771.1747427 C-22.35453606 767.1565918 -22.36280634 763.13846221 -22.36961436 759.12031806 C-22.37993518 752.07291075 -22.38275455 745.02553093 -22.38070214 737.97811681 C-22.37765756 727.49839427 -22.38596405 717.01870224 -22.39645139 706.53898563 C-22.41581544 686.73502238 -22.4214205 666.93106947 -22.4225655 647.12709787 C-22.42348379 631.83647337 -22.4275963 616.54585294 -22.43396676 601.25522977 C-22.43576178 596.85744803 -22.43754141 592.45966628 -22.43931651 588.06188452 C-22.43975861 586.96865408 -22.4402007 585.87542363 -22.4406562 584.749065 C-22.45296836 553.98935101 -22.46085694 523.22963844 -22.45996964 492.46992189 C-22.45993848 491.30969127 -22.45990732 490.14946065 -22.45987522 488.95407154 C-22.459709 483.07323473 -22.45951092 477.19239793 -22.45930581 471.31156113 C-22.45926592 470.14355771 -22.45922603 468.97555429 -22.45918493 467.77215683 C-22.45910405 465.41016847 -22.45902046 463.04818011 -22.45893415 460.68619175 C-22.45770839 423.93031071 -22.47272469 387.17446657 -22.50007927 350.41859609 C-22.53078269 309.1457248 -22.54801283 267.87287774 -22.54615283 226.5999943 C-22.54600356 222.20126949 -22.54590615 217.80254468 -22.5458442 213.40381986 C-22.54582089 212.32070177 -22.54579758 211.23758368 -22.54577356 210.12164383 C-22.54571195 192.67144671 -22.55849805 175.22128156 -22.57570873 157.77109395 C-22.59264053 140.24142485 -22.5946583 122.71180263 -22.58149008 105.18212988 C-22.5740846 94.76134076 -22.57780648 84.34069382 -22.59737476 73.91991969 C-22.60933621 66.96367948 -22.6068266 60.00754271 -22.59243377 53.05130732 C-22.58463821 49.08479171 -22.58321196 45.11855208 -22.59934847 41.15205546 C-22.61390049 37.54352868 -22.61004112 33.93550783 -22.59150074 30.32700362 C-22.58643426 28.41789656 -22.60099126 26.50876819 -22.6163463 24.59971616 C-22.55123671 16.78449903 -21.78174866 10.86462474 -16.05330193 5.07020742 C-15.38427849 4.61516835 -14.71525506 4.16012929 -14.02595818 3.69130117 C-13.35435662 3.21821523 -12.68275506 2.74512929 -11.99080193 2.25770742 C-7.99261331 -0.11493429 -4.55532891 0.00257655 0 0 Z " fill="#FEFEFE" transform="translate(994.0884581804276,215.87119883298874)"/>
<path d="M0 0 C1.89023178 -0.00490829 1.89023178 -0.00490829 3.81865007 -0.00991574 C5.22255323 -0.00850561 6.62645629 -0.0070036 8.03035927 -0.00541991 C9.52363988 -0.00737249 11.01691997 -0.00976119 12.51019925 -0.01254788 C16.63778566 -0.01896284 20.76535265 -0.01910831 24.8929431 -0.01827047 C29.37444605 -0.01843968 33.85594198 -0.0243425 38.33744144 -0.02951133 C47.23686815 -0.03884962 56.13628987 -0.04276145 65.03572086 -0.0450303 C75.69107171 -0.04798918 86.34641594 -0.05668473 97.00176332 -0.06544458 C122.75885993 -0.08630283 148.51595769 -0.09676091 174.27306078 -0.10557419 C186.45427122 -0.10977869 198.63548116 -0.11500094 210.81669118 -0.12025872 C252.50138218 -0.13815001 294.18607333 -0.15314679 335.87076759 -0.16057891 C338.48844498 -0.16105367 341.10612237 -0.16152955 343.72379977 -0.16200657 C345.67102983 -0.16236113 345.67102983 -0.16236113 347.65759788 -0.16272286 C354.23486478 -0.16392408 360.81213168 -0.16513952 367.38939857 -0.16636485 C368.69468528 -0.166605 369.99997198 -0.16684515 371.34481283 -0.16709258 C413.67329994 -0.17498697 456.00175905 -0.19842115 498.33023393 -0.23092079 C543.06558098 -0.26520581 587.80091164 -0.28492882 632.53627205 -0.28822315 C637.44566791 -0.2886407 642.35506376 -0.28912026 647.26445961 -0.28964633 C648.4733212 -0.28976952 649.6821828 -0.28989271 650.92767656 -0.29001964 C670.39580725 -0.29235332 689.86390546 -0.30802265 709.33202457 -0.32848817 C728.89505723 -0.34872744 748.4580508 -0.35423247 768.021092 -0.34471754 C779.64746131 -0.3394952 791.27370065 -0.34541469 802.9000513 -0.36725221 C810.66503379 -0.3807364 818.42992659 -0.37970437 826.19490993 -0.36685025 C830.62007477 -0.3599378 835.04499069 -0.35933802 839.47013354 -0.37641034 C843.49950944 -0.39182912 847.52843666 -0.38867754 851.55779938 -0.37100006 C853.00290079 -0.36786201 854.44803666 -0.37136085 855.89309862 -0.38249181 C872.31221008 -0.50067946 885.54747625 4.3597742 897.54320717 15.60926992 C908.15959319 26.92756575 911.31559335 40.29404166 911.18773842 55.46083242 C910.14360491 69.07807357 902.68639919 80.97280815 892.90648842 90.12880117 C886.52612778 94.94241735 879.45738568 97.67884282 871.90648842 100.12880117 C870.42148842 100.62380117 870.42148842 100.62380117 868.90648842 101.12880117 C866.91886993 101.22302722 864.92817625 101.25625142 862.938326 101.25760233 C861.0518495 101.26251062 861.0518495 101.26251062 859.12726235 101.26751807 C857.72099438 101.26610786 856.3147265 101.26460584 854.90845871 101.26302224 C853.41664622 101.26497426 851.92483425 101.26736276 850.4330231 101.27015021 C846.30484404 101.27657218 842.17668439 101.27671009 838.04850129 101.27587281 C833.56807944 101.27604187 829.08766464 101.28194317 824.60724628 101.28711367 C815.70780266 101.29645627 806.80836401 101.30036451 797.9089161 101.30263263 C787.25430255 101.30559042 776.59969563 101.31428537 765.94508555 101.32304691 C740.18798462 101.34391043 714.43088253 101.35436436 688.67377512 101.36317652 C676.49247037 101.36738057 664.31116612 101.37260291 652.12986179 101.37786105 C610.44529326 101.39575346 568.7607246 101.41074995 527.0761528 101.41818124 C524.45818899 101.418656 521.84022517 101.41913189 519.22226136 101.4196089 C517.92396269 101.41984528 516.62566402 101.42008165 515.28802297 101.42032519 C508.70999843 101.42152641 502.13197389 101.42274186 495.55394936 101.42396718 C494.24851053 101.42420733 492.9430717 101.42444748 491.59807411 101.42469491 C449.26989373 101.43258834 406.94174136 101.45601994 364.6135732 101.48852313 C319.87953566 101.52281112 275.14551452 101.54253147 230.41146362 101.54582548 C225.5017534 101.54624303 220.5920432 101.5467226 215.68233299 101.54724866 C214.47339232 101.54737185 213.26445165 101.54749504 212.01887642 101.54762197 C192.55181809 101.54995538 173.08479225 101.5656233 153.61774551 101.58609051 C134.05345329 101.60633376 114.48920016 101.61183293 94.92489941 101.60231987 C83.29874548 101.59709895 71.67272155 101.60301035 60.04658629 101.62485455 C52.28043555 101.63834465 44.51437448 101.63730144 36.74822289 101.62445259 C32.32319338 101.61754406 27.89841272 101.616927 23.47340526 101.63401268 C19.44296933 101.64944792 15.41298164 101.64626251 11.38255876 101.6286024 C9.93819265 101.62546812 8.49379198 101.62894913 7.04946546 101.64009414 C-9.24719877 101.75759347 -23.10699555 97.29317449 -35.21460533 86.16395742 C-45.34642651 75.18957315 -49.50886008 61.55359746 -49.37085533 46.89442617 C-48.3971453 33.67391244 -41.80610987 21.09571053 -32.09351158 12.12880117 C-25.3288813 6.96826418 -18.21760281 3.57787891 -10.09351158 1.12880117 C-9.50948079 0.95147234 -8.92544999 0.77414351 -8.32372129 0.59144108 C-5.50898016 0.0075446 -2.87604954 0.00195244 0 0 Z " fill="#ECEDEF" transform="translate(1081.093511581421,390.87119883298874)"/>
<path d="M0 0 C0.69732192 -0.00367669 1.39464383 -0.00735338 2.11309671 -0.01114148 C4.44963219 -0.02215387 6.78612315 -0.02601805 9.12268066 -0.02983093 C10.79836162 -0.03609762 12.47404118 -0.04274461 14.14971924 -0.04974365 C19.65436844 -0.0707688 25.15901787 -0.08114726 30.66369629 -0.09111023 C32.5616304 -0.09515891 34.45956436 -0.09927586 36.35749817 -0.10346031 C45.2785088 -0.12251165 54.19951118 -0.13674062 63.12053823 -0.14507228 C73.40104761 -0.15483314 83.68134102 -0.18112279 93.96177435 -0.22157317 C101.91781717 -0.2517975 109.87379832 -0.26654729 117.8298974 -0.26985329 C122.57661177 -0.27219733 127.32309541 -0.28107269 132.06974792 -0.30631447 C136.54153682 -0.32970979 141.01294497 -0.33378269 145.48477936 -0.32355309 C147.11811342 -0.32306033 148.75146695 -0.32930337 150.38474274 -0.34310913 C167.41588273 -0.47890998 181.12248048 3.82629717 193.70666504 15.62763977 C204.32305106 26.94593561 207.47905122 40.31241151 207.35119629 55.47920227 C206.30706278 69.09644342 198.84985706 80.991178 189.06994629 90.14717102 C182.68958565 94.9607872 175.62084355 97.69721267 168.06994629 100.14717102 C167.07994629 100.47717102 166.08994629 100.80717102 165.06994629 101.14717102 C162.7994305 101.24583145 160.52606986 101.28221039 158.25341797 101.28761292 C157.55624491 101.29058404 156.85907186 101.29355516 156.14077234 101.29661632 C153.7987922 101.30530497 151.45686316 101.30681174 149.11486816 101.30830383 C147.43771251 101.3129321 145.76055791 101.31795677 144.08340454 101.323349 C139.52100604 101.33647912 134.95862226 101.34291981 130.39620781 101.34735966 C127.5435809 101.350291 124.69095801 101.35439605 121.83833313 101.35886383 C112.90717382 101.37254391 103.9760237 101.38220657 95.04485464 101.38606572 C84.74738452 101.3905399 74.45004757 101.40805584 64.15261793 101.43706632 C56.18726822 101.45872434 48.22195584 101.46877229 40.25657701 101.47010684 C35.50265923 101.47115244 30.74886654 101.47700737 25.99497986 101.49492645 C21.51668676 101.51147717 17.03861181 101.51352885 12.56029892 101.50478745 C10.92332752 101.50402065 9.28634406 101.50831222 7.64940262 101.5182457 C-9.83120189 101.61803506 -23.50568143 98.16048296 -36.44958496 85.81904602 C-42.84740481 78.92753613 -46.06070175 70.9906609 -48.93005371 62.14717102 C-49.42505371 60.66217102 -49.42505371 60.66217102 -49.93005371 59.14717102 C-50.92385045 42.48196415 -47.78110148 28.94990819 -36.74255371 15.89717102 C-29.42717305 8.17674411 -21.24896538 3.53836267 -10.93005371 1.14717102 C-10.36778831 0.97473279 -9.80552292 0.80229456 -9.22621918 0.62463093 C-6.12384083 -0.02047122 -3.16930575 0.01084286 0 0 Z " fill="#EC654F" transform="translate(1784.9300537109375,390.8528289794922)"/>
<path d="M0 0 C1.32 0 2.64 0 4 0 C4.495 5.94 4.495 5.94 5 12 C5.721875 11.175 6.44375 10.35 7.1875 9.5 C10 7 10 7 12.8125 6.6875 C13.534375 6.790625 14.25625 6.89375 15 7 C13.68 8.65 12.36 10.3 11 12 C14.57724434 12.83886661 14.57724434 12.83886661 18 12 C20.3392114 9.27887653 22.21552352 6.4547971 24.10546875 3.40625 C24.73066406 2.6121875 25.35585937 1.818125 26 1 C27.32 1 28.64 1 30 1 C30 4.96 30 8.92 30 13 C31.32 13 32.64 13 34 13 C33.67 14.98 33.34 16.96 33 19 C32.01 19 31.02 19 30 19 C30 20.98 30 22.96 30 25 C28.68 25 27.36 25 26 25 C26 23.02 26 21.04 26 19 C22.7 19 19.4 19 16 19 C16 18.01 16 17.02 16 16 C14.35 16.33 12.7 16.66 11 17 C11.66 17.94875 12.32 18.8975 13 19.875 C15 23 15 23 15 25 C12.75 24.875 12.75 24.875 10 24 C7.8125 21 7.8125 21 6 18 C5.34 17.67 4.68 17.34 4 17 C4 19.64 4 22.28 4 25 C2.68 25 1.36 25 0 25 C0 22.03 0 19.06 0 16 C-0.99 16.33 -1.98 16.66 -3 17 C-2.9175 17.928125 -2.835 18.85625 -2.75 19.8125 C-3 23 -3 23 -4.625 24.875 C-7.72426275 26.34307183 -9.60146464 26.48550505 -13 26 C-15.875 24.1875 -15.875 24.1875 -18 22 C-18 21.01 -18 20.02 -18 19 C-16.68 19 -15.36 19 -14 19 C-13.34 19.99 -12.68 20.98 -12 22 C-10.35 21.67 -8.7 21.34 -7 21 C-7 20.34 -7 19.68 -7 19 C-11.62 18.01 -16.24 17.02 -21 16 C-21 17.98 -21 19.96 -21 22 C-20.34 22 -19.68 22 -19 22 C-19 22.99 -19 23.98 -19 25 C-21.33333333 25 -23.66666667 25 -26 25 C-26.61875 25.02320313 -27.2375 25.04640625 -27.875 25.0703125 C-28.57625 25.08835937 -29.2775 25.10640625 -30 25.125 C-31.051875 25.15980469 -31.051875 25.15980469 -32.125 25.1953125 C-34 25 -34 25 -36 23 C-36.125 19.875 -36.125 19.875 -36 17 C-37.65 16.67 -39.3 16.34 -41 16 C-41 17.98 -41 19.96 -41 22 C-40.01 22 -39.02 22 -38 22 C-38 22.99 -38 23.98 -38 25 C-39.66611905 25.042721 -41.33382885 25.04063832 -43 25 C-44 24 -44 24 -44.09765625 22.15234375 C-44.06510417 20.1015625 -44.03255208 18.05078125 -44 16 C-44.99 16 -45.98 16 -47 16 C-47 15.01 -47 14.02 -47 13 C-46.01 13 -45.02 13 -44 13 C-44 12.01 -44 11.02 -44 10 C-44.99 10 -45.98 10 -47 10 C-47 9.01 -47 8.02 -47 7 C-46.01 7 -45.02 7 -44 7 C-44 5.35 -44 3.7 -44 2 C-43.01 2 -42.02 2 -41 2 C-41 3.65 -41 5.3 -41 7 C-40.01 7 -39.02 7 -38 7 C-38 7.99 -38 8.98 -38 10 C-38.99 10 -39.98 10 -41 10 C-41 10.99 -41 11.98 -41 13 C-39.02 13 -37.04 13 -35 13 C-34.896875 12.21625 -34.79375 11.4325 -34.6875 10.625 C-34 8 -34 8 -31 6 C-27.62791807 5.64126788 -25.64504659 5.66050179 -22.625 7.25 C-21 9 -21 9 -21 13 C-19.68 13 -18.36 13 -17 13 C-16.896875 12.21625 -16.79375 11.4325 -16.6875 10.625 C-16 8 -16 8 -13 6 C-6.54716981 6.45283019 -6.54716981 6.45283019 -4 9 C-4 9.99 -4 10.98 -4 12 C-4.99 12 -5.98 12 -7 12 C-7 11.34 -7 10.68 -7 10 C-9.31 10 -11.62 10 -14 10 C-14 10.99 -14 11.98 -14 13 C-9.38 13 -4.76 13 0 13 C0 8.71 0 4.42 0 0 Z " fill="#616161" transform="translate(1179,833)"/>
<path d="M0 0 C5.0428125 -0.0928125 5.0428125 -0.0928125 10.1875 -0.1875 C11.76374146 -0.22846802 11.76374146 -0.22846802 13.37182617 -0.27026367 C22.06691834 -0.34780165 22.06691834 -0.34780165 26 3 C30.45181859 8.77533223 30.82291118 13.84468689 30 21 C29.05089307 25.79664043 27.97542945 29.04836152 24.4375 32.5 C21.06762853 34.57376706 19.35737041 35.122515 15.4296875 35.09765625 C14.62257324 35.09515869 13.81545898 35.09266113 12.98388672 35.09008789 C11.9579541 35.08098389 10.93202148 35.07187988 9.875 35.0625 C4.986875 35.0315625 4.986875 35.0315625 0 35 C0 23.45 0 11.9 0 0 Z " fill="#152E67" transform="translate(1106,305)"/>
<path d="M0 0 C1.32 0 2.64 0 4 0 C4.495 5.94 4.495 5.94 5 12 C5.721875 11.175 6.44375 10.35 7.1875 9.5 C10 7 10 7 12.8125 6.6875 C13.534375 6.790625 14.25625 6.89375 15 7 C13.68 8.65 12.36 10.3 11 12 C15.29 12.33 19.58 12.66 24 13 C24 11.35 24 9.7 24 8 C22.02 8 20.04 8 18 8 C18 7.01 18 6.02 18 5 C20.97 4.505 20.97 4.505 24 4 C24 3.01 24 2.02 24 1 C25.32 1 26.64 1 28 1 C28 4.96 28 8.92 28 13 C29.98 13 31.96 13 34 13 C34 13.99 34 14.98 34 16 C32.02 16 30.04 16 28 16 C28 18.97 28 21.94 28 25 C26.68 25 25.36 25 24 25 C24 22.03 24 19.06 24 16 C19.71 16.33 15.42 16.66 11 17 C11.66 17.94875 12.32 18.8975 13 19.875 C15 23 15 23 15 25 C12.75 24.875 12.75 24.875 10 24 C8.60287726 22.04402816 7.26220093 20.04563599 6 18 C5.34 18 4.68 18 4 18 C3.67 20.31 3.34 22.62 3 25 C2.01 25 1.02 25 0 25 C0 22.03 0 19.06 0 16 C-0.99 16.33 -1.98 16.66 -3 17 C-2.9175 17.928125 -2.835 18.85625 -2.75 19.8125 C-3 23 -3 23 -4.625 24.875 C-7.72426275 26.34307183 -9.60146464 26.48550505 -13 26 C-15.875 24.1875 -15.875 24.1875 -18 22 C-18 21.01 -18 20.02 -18 19 C-16.68 19 -15.36 19 -14 19 C-13.34 19.99 -12.68 20.98 -12 22 C-10.35 21.67 -8.7 21.34 -7 21 C-7 20.34 -7 19.68 -7 19 C-11.62 18.01 -16.24 17.02 -21 16 C-21 17.98 -21 19.96 -21 22 C-20.34 22 -19.68 22 -19 22 C-19 22.99 -19 23.98 -19 25 C-21.33333333 25 -23.66666667 25 -26 25 C-26.61875 25.02320313 -27.2375 25.04640625 -27.875 25.0703125 C-28.57625 25.08835937 -29.2775 25.10640625 -30 25.125 C-31.051875 25.15980469 -31.051875 25.15980469 -32.125 25.1953125 C-34 25 -34 25 -36 23 C-36.125 19.875 -36.125 19.875 -36 17 C-37.65 16.67 -39.3 16.34 -41 16 C-41 17.98 -41 19.96 -41 22 C-40.01 22 -39.02 22 -38 22 C-38 22.99 -38 23.98 -38 25 C-39.66611905 25.042721 -41.33382885 25.04063832 -43 25 C-44 24 -44 24 -44.09765625 22.15234375 C-44.06510417 20.1015625 -44.03255208 18.05078125 -44 16 C-44.99 16 -45.98 16 -47 16 C-47 15.01 -47 14.02 -47 13 C-46.01 13 -45.02 13 -44 13 C-44 12.01 -44 11.02 -44 10 C-44.99 10 -45.98 10 -47 10 C-47 9.01 -47 8.02 -47 7 C-46.01 7 -45.02 7 -44 7 C-44 5.35 -44 3.7 -44 2 C-43.01 2 -42.02 2 -41 2 C-41 3.65 -41 5.3 -41 7 C-40.01 7 -39.02 7 -38 7 C-38 7.99 -38 8.98 -38 10 C-38.99 10 -39.98 10 -41 10 C-41 10.99 -41 11.98 -41 13 C-39.02 13 -37.04 13 -35 13 C-34.896875 12.21625 -34.79375 11.4325 -34.6875 10.625 C-34 8 -34 8 -31 6 C-27.62791807 5.64126788 -25.64504659 5.66050179 -22.625 7.25 C-21 9 -21 9 -21 13 C-19.68 13 -18.36 13 -17 13 C-16.896875 12.21625 -16.79375 11.4325 -16.6875 10.625 C-16 8 -16 8 -13 6 C-6.54716981 6.45283019 -6.54716981 6.45283019 -4 9 C-4 9.99 -4 10.98 -4 12 C-4.99 12 -5.98 12 -7 12 C-7 11.34 -7 10.68 -7 10 C-9.31 10 -11.62 10 -14 10 C-14 10.99 -14 11.98 -14 13 C-9.38 13 -4.76 13 0 13 C0 8.71 0 4.42 0 0 Z " fill="#5F5F5F" transform="translate(1179,572)"/>
<path d="M0 0 C23.4375 -1.07142857 23.4375 -1.07142857 28.9375 3.5 C31.06213339 6.09323562 32.63362285 8.55604609 33.25 11.875 C32.50470895 18.29208229 25.61539012 22.21689335 21 26 C20.40703125 26.6496875 19.8140625 27.299375 19.203125 27.96875 C17.6875 29.625 17.6875 29.625 14 32 C9.38 32 4.76 32 0 32 C0 21.44 0 10.88 0 0 Z " fill="#CCD9F1" transform="translate(1286,308)"/>
<path d="M0 0 C3.5263261 2.48445702 5.26428433 4.90603556 6.75 8.9375 C7.59339051 14.73580977 6.14624145 19.25448384 2.75 23.9375 C-1.0968911 26.73523898 -4.62498222 27.49044055 -9.29296875 27.28515625 C-12.69375839 26.68102396 -14.69572722 25.19476432 -17.25 22.9375 C-20.54799116 18.21037934 -21.15379228 13.54101216 -20.25 7.9375 C-15.87484324 -0.81281353 -9.03403649 -2.95343501 0 0 Z " fill="#152E67" transform="translate(1159.25,314.0625)"/>
<path d="M0 0 C3.5263261 2.48445702 5.26428433 4.90603556 6.75 8.9375 C7.59339051 14.73580977 6.14624145 19.25448384 2.75 23.9375 C-1.0968911 26.73523898 -4.62498222 27.49044055 -9.29296875 27.28515625 C-12.69375839 26.68102396 -14.69572722 25.19476432 -17.25 22.9375 C-20.54799116 18.21037934 -21.15379228 13.54101216 -20.25 7.9375 C-15.87484324 -0.81281353 -9.03403649 -2.95343501 0 0 Z " fill="#152E67" transform="translate(1079.25,314.0625)"/>
<path d="M0 0 C1.32 0 2.64 0 4 0 C4.33 3.96 4.66 7.92 5 12 C5.680625 11.154375 6.36125 10.30875 7.0625 9.4375 C10 7 10 7 13.8125 7.1875 C15.3903125 7.5896875 15.3903125 7.5896875 17 8 C17.103125 7.21625 17.20625 6.4325 17.3125 5.625 C18 3 18 3 21 1 C27.97763578 0.33546326 27.97763578 0.33546326 31.5 2.625 C33.5279077 5.83585385 33.82126157 7.26699285 33 11 C29.6387971 14.87758882 25.38492744 17.42063092 21 20 C20.67 20.66 20.34 21.32 20 22 C24.29 22 28.58 22 33 22 C33 22.99 33 23.98 33 25 C29.41728224 25.1743959 25.83565398 25.28087658 22.25 25.375 C20.72632813 25.45041016 20.72632813 25.45041016 19.171875 25.52734375 C16.32968204 25.58343966 13.7869081 25.56761924 11 25 C7 20.71098266 7 20.71098266 7 17 C6.01 17.33 5.02 17.66 4 18 C3.67 20.31 3.34 22.62 3 25 C2.01 25 1.02 25 0 25 C0 16.75 0 8.5 0 0 Z " fill="#F6F6F6" transform="translate(1179,659)"/>
<path d="M0 0 C2.64520572 1.39221353 3.93026358 2.72328994 6 5 C6 6.32 6 7.64 6 9 C3.69 9 1.38 9 -1 9 C-1.33 8.34 -1.66 7.68 -2 7 C-3.98 7 -5.96 7 -8 7 C-8.33 7.66 -8.66 8.32 -9 9 C-8.18015625 9.17015625 -7.3603125 9.3403125 -6.515625 9.515625 C-4.89914062 9.87914062 -4.89914062 9.87914062 -3.25 10.25 C-2.18265625 10.48203125 -1.1153125 10.7140625 -0.015625 10.953125 C3.32659379 12.11337712 4.83750155 13.22624902 7 16 C7.5625 19.5 7.5625 19.5 7 23 C3.32824265 26.77099404 -0.12459026 28.14203687 -5.3125 28.375 C-8.73942318 28.33586711 -10.77222001 27.91942934 -13.5 25.8125 C-15.9954447 23.00512471 -16.78931408 21.68700366 -17 18 C-14.36 18 -11.72 18 -9 18 C-9 18.99 -9 19.98 -9 21 C-6.36 21 -3.72 21 -1 21 C-1 20.34 -1 19.68 -1 19 C-1.74765625 18.82984375 -2.4953125 18.6596875 -3.265625 18.484375 C-4.25046875 18.24203125 -5.2353125 17.9996875 -6.25 17.75 C-7.22453125 17.51796875 -8.1990625 17.2859375 -9.203125 17.046875 C-12.36507043 15.86335352 -13.88971379 14.61203259 -16 12 C-16.5625 9.0625 -16.5625 9.0625 -16 6 C-11.55700094 0.59635249 -6.96330988 -1.18022201 0 0 Z " fill="#183169" transform="translate(1241,313)"/>
<path d="M0 0 C9.24 0 18.48 0 28 0 C28 2.31 28 4.62 28 7 C24.7 7 21.4 7 18 7 C18 16.24 18 25.48 18 35 C15.36 35 12.72 35 10 35 C10 25.43 10 15.86 10 6 C6.7 6 3.4 6 0 6 C0 4.02 0 2.04 0 0 Z " fill="#142D66" transform="translate(1033,305)"/>
<path d="M0 0 C2.64 0 5.28 0 8 0 C8 9.24 8 18.48 8 28 C13.61 28 19.22 28 25 28 C25 30.31 25 32.62 25 35 C16.75 35 8.5 35 0 35 C0 23.45 0 11.9 0 0 Z " fill="#162F67" transform="translate(1184,305)"/>
<path d="M0 0 C2.31 0 4.62 0 7 0 C7 2.31 7 4.62 7 7 C8.32 7 9.64 7 11 7 C11 8.65 11 10.3 11 12 C9.68 12 8.36 12 7 12 C7 17.28 7 22.56 7 28 C8.32 28 9.64 28 11 28 C11 29.65 11 31.3 11 33 C9.54207116 33.05399736 8.08357288 33.09279177 6.625 33.125 C5.81289062 33.14820313 5.00078125 33.17140625 4.1640625 33.1953125 C2 33 2 33 0 31 C-0.31884766 29.12060547 -0.31884766 29.12060547 -0.4140625 26.8671875 C-0.45273438 26.06152344 -0.49140625 25.25585938 -0.53125 24.42578125 C-0.57765625 23.16314453 -0.57765625 23.16314453 -0.625 21.875 C-0.68300781 20.60076172 -0.68300781 20.60076172 -0.7421875 19.30078125 C-0.83656494 17.20088316 -0.91937586 15.10047109 -1 13 C-1.99 12.67 -2.98 12.34 -4 12 C-4 10.35 -4 8.7 -4 7 C-2.68 7 -1.36 7 0 7 C0 4.69 0 2.38 0 0 Z " fill="#142D66" transform="translate(1254,307)"/>
<path d="M0 0 C9 0 9 0 12.0625 1.75 C15.02782258 6.72408949 14.80265202 11.35805763 14 17 C12.625 20.25 12.625 20.25 10 22 C6.7 22 3.4 22 0 22 C0 14.74 0 7.48 0 0 Z " fill="#F8F9FA" transform="translate(1114,311)"/>
<path d="M0 0 C1.32 0.33 2.64 0.66 4 1 C4 8.59 4 16.18 4 24 C-7 25 -7 25 -9.625 23.1875 C-12.11335988 19.22874565 -12.40094647 16.73116832 -12 12 C-10.4375 9.0625 -10.4375 9.0625 -8 7 C-4.25 6.6875 -4.25 6.6875 -1 7 C-0.67 4.69 -0.34 2.38 0 0 Z " fill="#FDEFEC" transform="translate(1869,429)"/>
<path d="M0 0 C0.99 0 1.98 0 3 0 C3 7.92 3 15.84 3 24 C-7 25 -7 25 -10.125 23.0625 C-12.67722134 18.89387182 -12.53802173 16.84219554 -12 12 C-10.99124788 9.18990481 -10.66604583 8.33302292 -8 7 C-5.6670134 6.95977609 -3.33293334 6.95679753 -1 7 C-0.67 4.69 -0.34 2.38 0 0 Z " fill="#FDF5F4" transform="translate(1887,429)"/>
<path d="M0 0 C4.37859255 0.50522222 6.81651224 3.17827222 10 6 C10.38671875 5.55527344 10.7734375 5.11054687 11.171875 4.65234375 C11.69265625 4.08644531 12.2134375 3.52054688 12.75 2.9375 C13.26046875 2.36902344 13.7709375 1.80054688 14.296875 1.21484375 C16 0 16 0 18.203125 0.31640625 C18.79609375 0.54199219 19.3890625 0.76757812 20 1 C19.49477778 5.37859255 16.82172778 7.81651224 14 11 C14.44472656 11.38671875 14.88945313 11.7734375 15.34765625 12.171875 C15.91355469 12.69265625 16.47945312 13.2134375 17.0625 13.75 C17.63097656 14.26046875 18.19945312 14.7709375 18.78515625 15.296875 C20 17 20 17 19.68359375 19.203125 C19.45800781 19.79609375 19.23242188 20.3890625 19 21 C14.62140745 20.49477778 12.18348776 17.82172778 9 15 C8.41992188 15.66708984 8.41992188 15.66708984 7.828125 16.34765625 C7.30734375 16.91355469 6.7865625 17.47945312 6.25 18.0625 C5.73953125 18.63097656 5.2290625 19.19945312 4.703125 19.78515625 C3 21 3 21 0.796875 20.68359375 C-0.09257813 20.34521484 -0.09257813 20.34521484 -1 20 C-0.49477778 15.62140745 2.17827222 13.18348776 5 10 C2.69 7.69 0.38 5.38 -2 3 C-1.34 2.01 -0.68 1.02 0 0 Z " fill="#656565" transform="translate(1943,846)"/>
<path d="M0 0 C4.37859255 0.50522222 6.81651224 3.17827222 10 6 C10.38671875 5.55527344 10.7734375 5.11054687 11.171875 4.65234375 C11.69265625 4.08644531 12.2134375 3.52054688 12.75 2.9375 C13.26046875 2.36902344 13.7709375 1.80054688 14.296875 1.21484375 C16 0 16 0 18.203125 0.31640625 C18.79609375 0.54199219 19.3890625 0.76757812 20 1 C19.49477778 5.37859255 16.82172778 7.81651224 14 11 C14.44472656 11.38671875 14.88945313 11.7734375 15.34765625 12.171875 C15.91355469 12.69265625 16.47945312 13.2134375 17.0625 13.75 C17.63097656 14.26046875 18.19945312 14.7709375 18.78515625 15.296875 C20 17 20 17 19.68359375 19.203125 C19.45800781 19.79609375 19.23242188 20.3890625 19 21 C14.62140745 20.49477778 12.18348776 17.82172778 9 15 C8.41992188 15.66708984 8.41992188 15.66708984 7.828125 16.34765625 C7.30734375 16.91355469 6.7865625 17.47945312 6.25 18.0625 C5.73953125 18.63097656 5.2290625 19.19945312 4.703125 19.78515625 C3 21 3 21 0.796875 20.68359375 C-0.09257813 20.34521484 -0.09257813 20.34521484 -1 20 C-0.49477778 15.62140745 2.17827222 13.18348776 5 10 C2.69 7.69 0.38 5.38 -2 3 C-1.34 2.01 -0.68 1.02 0 0 Z " fill="#656565" transform="translate(1943,759)"/>
<path d="M0 0 C4.37859255 0.50522222 6.81651224 3.17827222 10 6 C10.38671875 5.55527344 10.7734375 5.11054687 11.171875 4.65234375 C11.69265625 4.08644531 12.2134375 3.52054688 12.75 2.9375 C13.26046875 2.36902344 13.7709375 1.80054688 14.296875 1.21484375 C16 0 16 0 18.203125 0.31640625 C18.79609375 0.54199219 19.3890625 0.76757812 20 1 C19.49477778 5.37859255 16.82172778 7.81651224 14 11 C14.44472656 11.38671875 14.88945313 11.7734375 15.34765625 12.171875 C15.91355469 12.69265625 16.47945312 13.2134375 17.0625 13.75 C17.63097656 14.26046875 18.19945312 14.7709375 18.78515625 15.296875 C20 17 20 17 19.68359375 19.203125 C19.45800781 19.79609375 19.23242188 20.3890625 19 21 C14.62140745 20.49477778 12.18348776 17.82172778 9 15 C8.41992188 15.66708984 8.41992188 15.66708984 7.828125 16.34765625 C7.30734375 16.91355469 6.7865625 17.47945312 6.25 18.0625 C5.73953125 18.63097656 5.2290625 19.19945312 4.703125 19.78515625 C3 21 3 21 0.796875 20.68359375 C-0.09257813 20.34521484 -0.09257813 20.34521484 -1 20 C-0.49477778 15.62140745 2.17827222 13.18348776 5 10 C2.69 7.69 0.38 5.38 -2 3 C-1.34 2.01 -0.68 1.02 0 0 Z " fill="#656565" transform="translate(1943,672)"/>
<path d="M0 0 C4.37859255 0.50522222 6.81651224 3.17827222 10 6 C10.38671875 5.55527344 10.7734375 5.11054687 11.171875 4.65234375 C11.69265625 4.08644531 12.2134375 3.52054688 12.75 2.9375 C13.26046875 2.36902344 13.7709375 1.80054688 14.296875 1.21484375 C16 0 16 0 18.203125 0.31640625 C18.79609375 0.54199219 19.3890625 0.76757812 20 1 C19.49477778 5.37859255 16.82172778 7.81651224 14 11 C14.44472656 11.38671875 14.88945313 11.7734375 15.34765625 12.171875 C15.91355469 12.69265625 16.47945312 13.2134375 17.0625 13.75 C17.63097656 14.26046875 18.19945312 14.7709375 18.78515625 15.296875 C20 17 20 17 19.68359375 19.203125 C19.45800781 19.79609375 19.23242188 20.3890625 19 21 C14.62140745 20.49477778 12.18348776 17.82172778 9 15 C8.41992188 15.66708984 8.41992188 15.66708984 7.828125 16.34765625 C7.30734375 16.91355469 6.7865625 17.47945312 6.25 18.0625 C5.73953125 18.63097656 5.2290625 19.19945312 4.703125 19.78515625 C3 21 3 21 0.796875 20.68359375 C-0.09257813 20.34521484 -0.09257813 20.34521484 -1 20 C-0.49477778 15.62140745 2.17827222 13.18348776 5 10 C2.69 7.69 0.38 5.38 -2 3 C-1.34 2.01 -0.68 1.02 0 0 Z " fill="#656565" transform="translate(1943,585)"/>
<path d="M0 0 C1.32 0 2.64 0 4 0 C5.34146494 3.43438215 6.67175905 6.87298417 8 10.3125 C8.3815625 11.28896484 8.763125 12.26542969 9.15625 13.27148438 C9.5171875 14.20927734 9.878125 15.14707031 10.25 16.11328125 C10.58515625 16.97735596 10.9203125 17.84143066 11.265625 18.73168945 C12 21 12 21 12 24 C10.68 24 9.36 24 8 24 C7.34 21.69 6.68 19.38 6 17 C3.03 17 0.06 17 -3 17 C-3.33 18.98 -3.66 20.96 -4 23 C-5.65 23.33 -7.3 23.66 -9 24 C-3.234375 3.234375 -3.234375 3.234375 0 0 Z " fill="#FDF4F2" transform="translate(1844,429)"/>
<path d="M0 0 C7.59 0 15.18 0 23 0 C24.43088528 2.86177057 23.59991697 4.93375773 23 8 C22.67 8 22.34 8 22 8 C22 5.69 22 3.38 22 1 C15.07 1 8.14 1 1 1 C1.33 10.24 1.66 19.48 2 29 C3.98 26.69 5.96 24.38 8 22 C11.70401128 19.53065915 14.70587865 19.55071567 19 20 C21.5 21 21.5 21 23 22 C20.7232158 26.94019214 18.65261538 28.98948417 14 32 C9.38 32 4.76 32 0 32 C0 21.44 0 10.88 0 0 Z " fill="#7DA568" transform="translate(1286,308)"/>
<path d="M0 0 C0.89589844 -0.01417969 1.79179688 -0.02835938 2.71484375 -0.04296875 C5.0625 0.1875 5.0625 0.1875 7.0625 2.1875 C7.2578125 5.2265625 7.2578125 5.2265625 7.1875 8.8125 C7.16945313 10.00101563 7.15140625 11.18953125 7.1328125 12.4140625 C7.10960937 13.32929687 7.08640625 14.24453125 7.0625 15.1875 C7.7225 15.1875 8.3825 15.1875 9.0625 15.1875 C9.0625 16.1775 9.0625 17.1675 9.0625 18.1875 C6.72916667 18.1875 4.39583333 18.1875 2.0625 18.1875 C1.44375 18.21070313 0.825 18.23390625 0.1875 18.2578125 C-0.51375 18.27585937 -1.215 18.29390625 -1.9375 18.3125 C-2.989375 18.34730469 -2.989375 18.34730469 -4.0625 18.3828125 C-5.9375 18.1875 -5.9375 18.1875 -7.9375 16.1875 C-8.3125 13.25 -8.3125 13.25 -7.9375 10.1875 C-4.9435264 6.71449062 -1.32945091 6.60980297 3.0625 6.1875 C2.7325 5.1975 2.4025 4.2075 2.0625 3.1875 C-0.41016765 3.53194881 -0.41016765 3.53194881 -2.9375 4.1875 C-3.2675 4.8475 -3.5975 5.5075 -3.9375 6.1875 C-4.9275 6.1875 -5.9175 6.1875 -6.9375 6.1875 C-5.93879694 0.62329726 -5.69437562 0.04084918 0 0 Z " fill="#141414" transform="translate(1150.9375,752.8125)"/>
<path d="M0 0 C0.89589844 -0.01417969 1.79179688 -0.02835938 2.71484375 -0.04296875 C5.0625 0.1875 5.0625 0.1875 7.0625 2.1875 C7.2578125 5.2265625 7.2578125 5.2265625 7.1875 8.8125 C7.16945313 10.00101563 7.15140625 11.18953125 7.1328125 12.4140625 C7.10960937 13.32929687 7.08640625 14.24453125 7.0625 15.1875 C7.7225 15.1875 8.3825 15.1875 9.0625 15.1875 C9.0625 16.1775 9.0625 17.1675 9.0625 18.1875 C6.72916667 18.1875 4.39583333 18.1875 2.0625 18.1875 C1.44375 18.21070313 0.825 18.23390625 0.1875 18.2578125 C-0.51375 18.27585937 -1.215 18.29390625 -1.9375 18.3125 C-2.989375 18.34730469 -2.989375 18.34730469 -4.0625 18.3828125 C-5.9375 18.1875 -5.9375 18.1875 -7.9375 16.1875 C-8.3125 13.25 -8.3125 13.25 -7.9375 10.1875 C-4.9435264 6.71449062 -1.32945091 6.60980297 3.0625 6.1875 C2.7325 5.1975 2.4025 4.2075 2.0625 3.1875 C-0.41016765 3.53194881 -0.41016765 3.53194881 -2.9375 4.1875 C-3.2675 4.8475 -3.5975 5.5075 -3.9375 6.1875 C-4.9275 6.1875 -5.9175 6.1875 -6.9375 6.1875 C-5.93879694 0.62329726 -5.69437562 0.04084918 0 0 Z " fill="#141414" transform="translate(1150.9375,665.8125)"/>
<path d="M0 0 C2.5 1.125 2.5 1.125 4 3 C4.25 5.9375 4.25 5.9375 4 9 C4 10.32 4 11.64 4 13 C4.33 13.33 4.66 13.66 5 14 C5.37881436 17.40932922 5.36000519 19.37817286 3.625 22.375 C-0.29380732 24.80092834 -4.5146239 25.01838255 -9 24 C-10.80859375 22.21875 -10.80859375 22.21875 -12 20 C-12 18.68 -12 17.36 -12 16 C-10.68 16 -9.36 16 -8 16 C-7.67 17.32 -7.34 18.64 -7 20 C-5.02 20 -3.04 20 -1 20 C-0.67 18.35 -0.34 16.7 0 15 C-1.98 14.34 -3.96 13.68 -6 13 C-6 12.01 -6 11.02 -6 10 C-4.35 9.67 -2.7 9.34 -1 9 C-1 7.35 -1 5.7 -1 4 C-2.65 4 -4.3 4 -6 4 C-6.66 5.32 -7.32 6.64 -8 8 C-8.99 8 -9.98 8 -11 8 C-11.21620175 5.3335118 -11.30894168 3.55995679 -10 1.1875 C-6.80804446 -0.7077236 -3.5620268 -0.51602803 0 0 Z " fill="#151515" transform="translate(1207,747)"/>
<path d="M0 0 C3.12843269 2.03348125 3.82345977 3.26174084 4.6875 6.875 C3.66534865 11.5211425 0.79102511 13.35491623 -3 16 C-4.66026356 17.01059521 -6.32470102 18.01453001 -8 19 C-8.33 19.66 -8.66 20.32 -9 21 C-4.71 21 -0.42 21 4 21 C4 21.99 4 22.98 4 24 C-1.61 24 -7.22 24 -13 24 C-11.93172024 17.59032141 -10.83839958 16.46096047 -6 13 C-5.05125 12.236875 -4.1025 11.47375 -3.125 10.6875 C-2.073125 9.8521875 -2.073125 9.8521875 -1 9 C-1.33 7.35 -1.66 5.7 -2 4 C-3.65 4 -5.3 4 -7 4 C-7.66 5.65 -8.32 7.3 -9 9 C-9.99 9 -10.98 9 -12 9 C-11.6875 5.625 -11.6875 5.625 -11 2 C-7.31494085 -0.4567061 -4.27963474 -0.68887481 0 0 Z " fill="#0F0F0F" transform="translate(1208,660)"/>
<path d="M0 0 C0.99 0 1.98 0 3 0 C3 6.6 3 13.2 3 20 C-0.3 20 -3.6 20 -7 20 C-10.1447315 15.80702467 -10.61894332 14.95154659 -10 10 C-8.875 7.625 -8.875 7.625 -7 6 C-3.8125 5.75 -3.8125 5.75 -1 6 C-0.67 4.02 -0.34 2.04 0 0 Z " fill="#818181" transform="translate(1135,431)"/>
<path d="M0 0 C0.99 0 1.98 0 3 0 C3 6.6 3 13.2 3 20 C-0.3 20 -3.6 20 -7 20 C-10.1447315 15.80702467 -10.61894332 14.95154659 -10 10 C-8.9375 7.625 -8.9375 7.625 -7 6 C-3.3125 5.75 -3.3125 5.75 0 6 C0 4.02 0 2.04 0 0 Z " fill="#7F7F7F" transform="translate(1120,431)"/>
<path d="M0 0 C2.31 0 4.62 0 7 0 C7 8.58 7 17.16 7 26 C4.69 26 2.38 26 0 26 C0 17.42 0 8.84 0 0 Z " fill="#0C2661" transform="translate(1213,314)"/>
<path d="M0 0 C1.32 0 2.64 0 4 0 C4.33 3.96 4.66 7.92 5 12 C5.721875 11.175 6.44375 10.35 7.1875 9.5 C10 7 10 7 12.8125 6.6875 C13.534375 6.790625 14.25625 6.89375 15 7 C14.154375 7.9075 13.30875 8.815 12.4375 9.75 C10.42653541 12.07382691 10.42653541 12.07382691 9.9375 15 C11.42578901 17.8014852 13.22833658 20.37108009 15 23 C15 23.66 15 24.32 15 25 C12.6875 24.8125 12.6875 24.8125 10 24 C7 19.96551724 7 19.96551724 7 17 C6.01 17.33 5.02 17.66 4 18 C3.67 20.31 3.34 22.62 3 25 C2.01 25 1.02 25 0 25 C0 16.75 0 8.5 0 0 Z " fill="#1D1D1D" transform="translate(1179,746)"/>
<path d="M0 0 C1.32 0 2.64 0 4 0 C4.33 3.96 4.66 7.92 5 12 C5.721875 11.175 6.44375 10.35 7.1875 9.5 C10 7 10 7 12.8125 6.6875 C13.534375 6.790625 14.25625 6.89375 15 7 C14.154375 7.9075 13.30875 8.815 12.4375 9.75 C10.42653541 12.07382691 10.42653541 12.07382691 9.9375 15 C11.42578901 17.8014852 13.22833658 20.37108009 15 23 C15 23.66 15 24.32 15 25 C12.6875 24.8125 12.6875 24.8125 10 24 C7 19.96551724 7 19.96551724 7 17 C6.01 17.33 5.02 17.66 4 18 C3.67 20.31 3.34 22.62 3 25 C2.01 25 1.02 25 0 25 C0 16.75 0 8.5 0 0 Z " fill="#1D1D1D" transform="translate(1179,659)"/>
<path d="M0 0 C2.3125 1.5625 2.3125 1.5625 4 4 C4.45674603 7.65396822 4.41282332 10.05293473 2.9375 13.4375 C1 15 1 15 -2.5 15.4375 C-6 15 -6 15 -7.9375 14 C-9.65841319 10.76063399 -9.63857688 7.52636345 -9 4 C-6.51474505 0.31814082 -4.41199243 -0.88239849 0 0 Z " fill="#7C7C7C" transform="translate(1170,436)"/>
<path d="M0 0 C1.32 0 2.64 0 4 0 C6.31 5.94 8.62 11.88 11 18 C9.68 18.33 8.36 18.66 7 19 C6.67 17.02 6.34 15.04 6 13 C3.36 13 0.72 13 -2 13 C-2.66 14.98 -3.32 16.96 -4 19 C-4.99 18.67 -5.98 18.34 -7 18 C-4.69 12.06 -2.38 6.12 0 0 Z " fill="#7D7D7E" transform="translate(1099,432)"/>
<path d="M0 0 C1.19109375 0.00773438 1.19109375 0.00773438 2.40625 0.015625 C3.2003125 0.01046875 3.994375 0.0053125 4.8125 0 C6.90625 0.265625 6.90625 0.265625 8.90625 2.265625 C8.90625 3.255625 8.90625 4.245625 8.90625 5.265625 C7.91625 5.265625 6.92625 5.265625 5.90625 5.265625 C5.90625 4.605625 5.90625 3.945625 5.90625 3.265625 C3.92625 3.265625 1.94625 3.265625 -0.09375 3.265625 C-0.42375 4.255625 -0.75375 5.245625 -1.09375 6.265625 C-0.46726562 6.38679687 0.15921875 6.50796875 0.8046875 6.6328125 C1.62195312 6.80039062 2.43921875 6.96796875 3.28125 7.140625 C4.09335938 7.30304687 4.90546875 7.46546875 5.7421875 7.6328125 C7.90625 8.265625 7.90625 8.265625 9.90625 10.265625 C9.71875 13.765625 9.71875 13.765625 8.90625 17.265625 C5.39371854 19.60731264 4.04155644 19.76186177 -0.09375 19.265625 C-2.96875 17.453125 -2.96875 17.453125 -5.09375 15.265625 C-5.09375 14.275625 -5.09375 13.285625 -5.09375 12.265625 C-3.77375 12.265625 -2.45375 12.265625 -1.09375 12.265625 C-1.09375 13.255625 -1.09375 14.245625 -1.09375 15.265625 C0.88625 15.265625 2.86625 15.265625 4.90625 15.265625 C5.23625 14.275625 5.56625 13.285625 5.90625 12.265625 C5.26816406 12.06066406 4.63007812 11.85570312 3.97265625 11.64453125 C3.14636719 11.37511719 2.32007813 11.10570312 1.46875 10.828125 C0.64503906 10.56128906 -0.17867187 10.29445313 -1.02734375 10.01953125 C-3.09375 9.265625 -3.09375 9.265625 -4.09375 8.265625 C-4.28125 5.328125 -4.28125 5.328125 -4.09375 2.265625 C-2.09375 0.265625 -2.09375 0.265625 0 0 Z " fill="#131313" transform="translate(1166.09375,752.734375)"/>
<path d="M0 0 C1.19109375 0.00773438 1.19109375 0.00773438 2.40625 0.015625 C3.2003125 0.01046875 3.994375 0.0053125 4.8125 0 C6.90625 0.265625 6.90625 0.265625 8.90625 2.265625 C8.90625 3.255625 8.90625 4.245625 8.90625 5.265625 C7.91625 5.265625 6.92625 5.265625 5.90625 5.265625 C5.90625 4.605625 5.90625 3.945625 5.90625 3.265625 C3.92625 3.265625 1.94625 3.265625 -0.09375 3.265625 C-0.42375 4.255625 -0.75375 5.245625 -1.09375 6.265625 C-0.46726562 6.38679687 0.15921875 6.50796875 0.8046875 6.6328125 C1.62195312 6.80039062 2.43921875 6.96796875 3.28125 7.140625 C4.09335938 7.30304687 4.90546875 7.46546875 5.7421875 7.6328125 C7.90625 8.265625 7.90625 8.265625 9.90625 10.265625 C9.71875 13.765625 9.71875 13.765625 8.90625 17.265625 C5.39371854 19.60731264 4.04155644 19.76186177 -0.09375 19.265625 C-2.96875 17.453125 -2.96875 17.453125 -5.09375 15.265625 C-5.09375 14.275625 -5.09375 13.285625 -5.09375 12.265625 C-3.77375 12.265625 -2.45375 12.265625 -1.09375 12.265625 C-1.09375 13.255625 -1.09375 14.245625 -1.09375 15.265625 C0.88625 15.265625 2.86625 15.265625 4.90625 15.265625 C5.23625 14.275625 5.56625 13.285625 5.90625 12.265625 C5.26816406 12.06066406 4.63007812 11.85570312 3.97265625 11.64453125 C3.14636719 11.37511719 2.32007813 11.10570312 1.46875 10.828125 C0.64503906 10.56128906 -0.17867187 10.29445313 -1.02734375 10.01953125 C-3.09375 9.265625 -3.09375 9.265625 -4.09375 8.265625 C-4.28125 5.328125 -4.28125 5.328125 -4.09375 2.265625 C-2.09375 0.265625 -2.09375 0.265625 0 0 Z " fill="#131313" transform="translate(1166.09375,665.734375)"/>
<path d="M0 0 C2.9375 0.875 2.9375 0.875 4.9375 3.875 C5.60313945 10.86421418 5.60313945 10.86421418 3.25 14.4375 C0.9375 15.875 0.9375 15.875 -1.6875 15.8125 C-4.0625 14.875 -4.0625 14.875 -6.0625 11.875 C-6.36328125 9.71875 -6.36328125 9.71875 -6.375 7.375 C-6.39175781 6.6015625 -6.40851563 5.828125 -6.42578125 5.03125 C-5.74059929 0.9643635 -4.00825972 -0.16360244 0 0 Z " fill="#F0F2F5" transform="translate(1153.0625,319.125)"/>
<path d="M0 0 C2.9375 0.875 2.9375 0.875 4.9375 3.875 C5.60313945 10.86421418 5.60313945 10.86421418 3.25 14.4375 C0.9375 15.875 0.9375 15.875 -1.6875 15.8125 C-4.0625 14.875 -4.0625 14.875 -6.0625 11.875 C-6.36328125 9.71875 -6.36328125 9.71875 -6.375 7.375 C-6.39175781 6.6015625 -6.40851563 5.828125 -6.42578125 5.03125 C-5.74059929 0.9643635 -4.00825972 -0.16360244 0 0 Z " fill="#F0F2F5" transform="translate(1073.0625,319.125)"/>
<path d="M0 0 C0.70125 -0.01675781 1.4025 -0.03351563 2.125 -0.05078125 C2.74375 0.06910156 3.3625 0.18898438 4 0.3125 C6 3.3125 6 3.3125 6 8.3125 C2.7 8.3125 -0.6 8.3125 -4 8.3125 C-3.01 9.7975 -3.01 9.7975 -2 11.3125 C-0.68 11.3125 0.64 11.3125 2 11.3125 C2.33 10.6525 2.66 9.9925 3 9.3125 C3.99 9.3125 4.98 9.3125 6 9.3125 C5.34 10.9625 4.68 12.6125 4 14.3125 C-1.21567553 14.74001439 -1.21567553 14.74001439 -4 14.3125 C-6.0625 12.25 -6.0625 12.25 -7 9.3125 C-6.71028323 3.61473694 -6.22949051 0.03435381 0 0 Z " fill="#818181" transform="translate(1221,436.6875)"/>
<path d="M0 0 C1.875 0.125 1.875 0.125 4 1 C5.25 4.0625 5.25 4.0625 6 7 C7.54571278 4.68143083 8.79618552 2.49361571 10 0 C10.99 0.33 11.98 0.66 13 1 C11.97037829 3.99157101 10.89603341 6.96507398 9.8125 9.9375 C9.52052734 10.78763672 9.22855469 11.63777344 8.92773438 12.51367188 C8.07923402 14.80371047 7.26285175 16.90870828 6 19 C3.26171875 20.06640625 3.26171875 20.06640625 1 20 C1 19.01 1 18.02 1 17 C1.99 16.67 2.98 16.34 4 16 C2.84941444 10.60204011 1.57578241 5.29012667 0 0 Z " fill="#7F7F7F" transform="translate(1147,437)"/>
<path d="M0 0 C4.62 0 9.24 0 14 0 C14 2.31 14 4.62 14 7 C9.38 7 4.76 7 0 7 C0 4.69 0 2.38 0 0 Z " fill="#173068" transform="translate(1088,323)"/>
<path d="M0 0 C0.99 0 1.98 0 3 0 C3 1.65 3 3.3 3 5 C3.99 5 4.98 5 6 5 C6 5.99 6 6.98 6 8 C5.01 8 4.02 8 3 8 C3 11.96 3 15.92 3 20 C3.99 20 4.98 20 6 20 C6 20.99 6 21.98 6 23 C4.33388095 23.042721 2.66617115 23.04063832 1 23 C0 22 0 22 -0.09765625 18.83984375 C-0.08025391 16.90818359 -0.08025391 16.90818359 -0.0625 14.9375 C-0.05347656 13.64714844 -0.04445313 12.35679687 -0.03515625 11.02734375 C-0.02355469 10.02832031 -0.01195312 9.02929688 0 8 C-0.99 8 -1.98 8 -3 8 C-3 7.01 -3 6.02 -3 5 C-2.01 5 -1.02 5 0 5 C0 3.35 0 1.7 0 0 Z " fill="#0B0B0B" transform="translate(1135,748)"/>
<path d="M0 0 C0.99 0 1.98 0 3 0 C3 1.65 3 3.3 3 5 C3.99 5 4.98 5 6 5 C6 5.99 6 6.98 6 8 C5.01 8 4.02 8 3 8 C3 11.96 3 15.92 3 20 C3.99 20 4.98 20 6 20 C6 20.99 6 21.98 6 23 C4.33388095 23.042721 2.66617115 23.04063832 1 23 C0 22 0 22 -0.09765625 18.83984375 C-0.08025391 16.90818359 -0.08025391 16.90818359 -0.0625 14.9375 C-0.05347656 13.64714844 -0.04445313 12.35679687 -0.03515625 11.02734375 C-0.02355469 10.02832031 -0.01195312 9.02929688 0 8 C-0.99 8 -1.98 8 -3 8 C-3 7.01 -3 6.02 -3 5 C-2.01 5 -1.02 5 0 5 C0 3.35 0 1.7 0 0 Z " fill="#0B0B0B" transform="translate(1135,661)"/>
<path d="M0 0 C0.99 0 1.98 0 3 0 C3.33 3.63 3.66 7.26 4 11 C5.32 11.33 6.64 11.66 8 12 C8.33 8.04 8.66 4.08 9 0 C9.99 0 10.98 0 12 0 C12 4.62 12 9.24 12 14 C10.39125 14.061875 8.7825 14.12375 7.125 14.1875 C5.76761719 14.23970703 5.76761719 14.23970703 4.3828125 14.29296875 C3.20332031 14.14794922 3.20332031 14.14794922 2 14 C-0.28062828 10.57905758 -0.21925007 9.31812778 -0.125 5.3125 C-0.10695313 4.31863281 -0.08890625 3.32476562 -0.0703125 2.30078125 C-0.04710937 1.54152344 -0.02390625 0.78226562 0 0 Z " fill="#808081" transform="translate(1176,437)"/>
<path d="M0 0 C1.9375 0.3125 1.9375 0.3125 4 1 C4.33 1.99 4.66 2.98 5 4 C5.66 4 6.32 4 7 4 C7.33 2.68 7.66 1.36 8 0 C9.32 0.33 10.64 0.66 12 1 C11.484375 1.5775 10.96875 2.155 10.4375 2.75 C8.78246864 4.83046099 8.78246864 4.83046099 9.1875 6.9375 C9.455625 7.618125 9.72375 8.29875 10 9 C10.350625 9.9075 10.70125 10.815 11.0625 11.75 C11.371875 12.4925 11.68125 13.235 12 14 C10.0625 13.6875 10.0625 13.6875 8 13 C7.67 12.01 7.34 11.02 7 10 C6.13375 11.0209375 6.13375 11.0209375 5.25 12.0625 C4.13625 13.0215625 4.13625 13.0215625 3 14 C0.75 13.75 0.75 13.75 -1 13 C0.32 10.69 1.64 8.38 3 6 C2.2575 5.071875 2.2575 5.071875 1.5 4.125 C0 2 0 2 0 0 Z " fill="#7E7E7E" transform="translate(1229,437)"/>
<path d="M0 0 C4.55555556 0.55555556 4.55555556 0.55555556 6 2 C6.26293056 6.03160191 6.29404844 7.55892734 4 11 C1.4375 11.25 1.4375 11.25 -1 11 C-2.89488952 9.10511048 -2.18019112 6.42860854 -2.23046875 3.91015625 C-2 2 -2 2 0 0 Z " fill="#EC6752" transform="translate(1881,439)"/>
<path d="M0 0 C4.55555556 0.55555556 4.55555556 0.55555556 6 2 C6.1875 5.4375 6.1875 5.4375 6 9 C4 11 4 11 1.375 11.125 C0.59125 11.08375 -0.1925 11.0425 -1 11 C-2.50662097 7.98675805 -2.17770373 5.31713623 -2 2 C-1.34 1.34 -0.68 0.68 0 0 Z " fill="#EC6751" transform="translate(1863,439)"/>
<path d="M0 0 C2.31 0.33 4.62 0.66 7 1 C7.38218767 2.65614657 7.71395102 4.32457024 8 6 C7 7 7 7 4.27734375 7.09765625 C2.62412109 7.08025391 2.62412109 7.08025391 0.9375 7.0625 C-0.16722656 7.05347656 -1.27195312 7.04445313 -2.41015625 7.03515625 C-3.69212891 7.01775391 -3.69212891 7.01775391 -5 7 C-4.34 5.68 -3.68 4.36 -3 3 C-2.34 3 -1.68 3 -1 3 C-0.67 2.01 -0.34 1.02 0 0 Z " fill="#F9FBFD" transform="translate(1294,314)"/>
<path d="M0 0 C5.8022175 -0.36263859 9.63999211 0.74315457 15 3 C14.67 3.99 14.34 4.98 14 6 C12.35 6.33 10.7 6.66 9 7 C8.34 5.68 7.68 4.36 7 3 C5.68 3 4.36 3 3 3 C3.33 4.32 3.66 5.64 4 7 C2.68 6.67 1.36 6.34 0 6 C0 4.02 0 2.04 0 0 Z " fill="#F7F7F7" transform="translate(1158,849)"/>
<path d="M0 0 C5.8022175 -0.36263859 9.63999211 0.74315457 15 3 C14.67 3.99 14.34 4.98 14 6 C12.35 6.33 10.7 6.66 9 7 C8.34 5.68 7.68 4.36 7 3 C5.68 3 4.36 3 3 3 C3.33 4.32 3.66 5.64 4 7 C2.68 6.67 1.36 6.34 0 6 C0 4.02 0 2.04 0 0 Z " fill="#F7F7F7" transform="translate(1158,588)"/>
<path d="M0 0 C0.99 0 1.98 0 3 0 C3 1.32 3 2.64 3 4 C3.66 4 4.32 4 5 4 C5 4.66 5 5.32 5 6 C4.34 6 3.68 6 3 6 C3 9.3 3 12.6 3 16 C3.66 16 4.32 16 5 16 C5 16.66 5 17.32 5 18 C3.35 17.67 1.7 17.34 0 17 C0 13.37 0 9.74 0 6 C-0.66 6 -1.32 6 -2 6 C-2 5.34 -2 4.68 -2 4 C-1.34 4 -0.68 4 0 4 C0 2.68 0 1.36 0 0 Z " fill="#838383" transform="translate(1244,433)"/>
<path d="M0 0 C0.99 0 1.98 0 3 0 C3 1.32 3 2.64 3 4 C3.66 4 4.32 4 5 4 C5 4.66 5 5.32 5 6 C4.34 6 3.68 6 3 6 C3 9.3 3 12.6 3 16 C3.66 16 4.32 16 5 16 C5 16.66 5 17.32 5 18 C3.35 17.67 1.7 17.34 0 17 C0 13.37 0 9.74 0 6 C-0.66 6 -1.32 6 -2 6 C-2 5.34 -2 4.68 -2 4 C-1.34 4 -0.68 4 0 4 C0 2.68 0 1.36 0 0 Z " fill="#7B7B7B" transform="translate(1208,433)"/>
<path d="M0 0 C2.5 0.125 2.5 0.125 3.5 1.125 C3.6875 4.5625 3.6875 4.5625 3.5 8.125 C2.84 8.785 2.18 9.445 1.5 10.125 C-2.03571429 9.58928571 -2.03571429 9.58928571 -3.5 8.125 C-3.625 4.625 -3.625 4.625 -3.5 1.125 C-2.5 0.125 -2.5 0.125 0 0 Z " fill="#E8E9EB" transform="translate(1167.5,438.875)"/>
<path d="M0 0 C2.625 0.375 2.625 0.375 5 1 C5 3.64 5 6.28 5 9 C3.35 9.33 1.7 9.66 0 10 C-2.14915785 6.77626323 -2.38286803 5.73296326 -2 2 C-1.34 1.34 -0.68 0.68 0 0 Z " fill="#E4E5E7" transform="translate(1115,439)"/>
<path d="M0 0 C3.53571429 0.53571429 3.53571429 0.53571429 5 2 C5.1875 4.9375 5.1875 4.9375 5 8 C4.34 8.66 3.68 9.32 3 10 C-0.53571429 9.46428571 -0.53571429 9.46428571 -2 8 C-2.1875 5.0625 -2.1875 5.0625 -2 2 C-1.34 1.34 -0.68 0.68 0 0 Z " fill="#E9EAEC" transform="translate(1130,439)"/>
<path d="M0 0 C0 0.66 0 1.32 0 2 C-0.64453125 2.22429687 -1.2890625 2.44859375 -1.953125 2.6796875 C-4.24388852 3.82889456 -4.24388852 3.82889456 -4.609375 6.3828125 C-4.65578125 7.28773438 -4.7021875 8.19265625 -4.75 9.125 C-4.80671875 10.03507812 -4.8634375 10.94515625 -4.921875 11.8828125 C-4.96054688 12.93082031 -4.96054688 12.93082031 -5 14 C-5.99 14 -6.98 14 -8 14 C-8 9.38 -8 4.76 -8 0 C-3 -1 -3 -1 0 0 Z " fill="#838384" transform="translate(1199,437)"/>
<path d="M0 0 C2.96714383 0.32968265 4.31954439 1.23965829 6.75 3.0625 C9.79627851 7.03958583 9.41514677 9.10126813 9 14 C8.67 14 8.34 14 8 14 C8 11.69 8 9.38 8 7 C5.03 7 2.06 7 -1 7 C-0.67 4.69 -0.34 2.38 0 0 Z " fill="#A6A6A6" transform="translate(1309,310)"/>
<path d="M0 0 C2.31 0 4.62 0 7 0 C7 1.98 7 3.96 7 6 C4.69 6 2.38 6 0 6 C0 4.02 0 2.04 0 0 Z " fill="#0C2661" transform="translate(1213,305)"/>
<path d="M0 0 C2.97 0.495 2.97 0.495 6 1 C6 1.66 6 2.32 6 3 C6.99 3 7.98 3 9 3 C9.33 2.34 9.66 1.68 10 1 C10 1.99 10 2.98 10 4 C9.01 4 8.02 4 7 4 C7 4.66 7 5.32 7 6 C1.25 5.125 1.25 5.125 -1 4 C-0.67 2.68 -0.34 1.36 0 0 Z " fill="#D5D5D5" transform="translate(1166,755)"/>
<path d="M0 0 C2.97 0.495 2.97 0.495 6 1 C6 1.66 6 2.32 6 3 C6.99 3 7.98 3 9 3 C9.33 2.34 9.66 1.68 10 1 C10 1.99 10 2.98 10 4 C9.01 4 8.02 4 7 4 C7 4.66 7 5.32 7 6 C1.25 5.125 1.25 5.125 -1 4 C-0.67 2.68 -0.34 1.36 0 0 Z " fill="#D5D5D5" transform="translate(1166,668)"/>
<path d="M0 0 C0.66 0 1.32 0 2 0 C2 4.29 2 8.58 2 13 C1.01 13.495 1.01 13.495 0 14 C-0.2475 13.05125 -0.495 12.1025 -0.75 11.125 C-1.6857077 7.91306809 -1.6857077 7.91306809 -4.125 6.625 C-4.74375 6.41875 -5.3625 6.2125 -6 6 C-4.35 5.67 -2.7 5.34 -1 5 C-0.67 3.35 -0.34 1.7 0 0 Z " fill="#797A7A" transform="translate(1135,432)"/>
<path d="M0 0 C1.98 0 3.96 0 6 0 C6.33 0.99 6.66 1.98 7 3 C9.64 2.67 12.28 2.34 15 2 C15 2.66 15 3.32 15 4 C13.27277272 4.22384382 11.54303993 4.42839969 9.8125 4.625 C8.36810547 4.79902344 8.36810547 4.79902344 6.89453125 4.9765625 C3.75924677 5.00194942 1.80513465 4.34359283 -1 3 C-0.67 2.01 -0.34 1.02 0 0 Z " fill="#DEE1E9" transform="translate(1233,319)"/>
<path d="M0 0 C0.33 0 0.66 0 1 0 C1 3.3 1 6.6 1 10 C-2.63 10 -6.26 10 -10 10 C-8.68 8.35 -7.36 6.7 -6 5 C-4.68 5.66 -3.36 6.32 -2 7 C-2 7.66 -2 8.32 -2 9 C-1.34 9 -0.68 9 0 9 C0 6.03 0 3.06 0 0 Z " fill="#7D7E7E" transform="translate(1317,330)"/>
<path d="M0 0 C0.33 0 0.66 0 1 0 C1.33 7.92 1.66 15.84 2 24 C2.66 24.33 3.32 24.66 4 25 C2.68 26.32 1.36 27.64 0 29 C0 19.43 0 9.86 0 0 Z " fill="#C8D3E5" transform="translate(1287,309)"/>
<path d="M0 0 C2.64 0.33 5.28 0.66 8 1 C8 2.32 8 3.64 8 5 C2.25 5.125 2.25 5.125 0 4 C0 2.68 0 1.36 0 0 Z " fill="#EEEFF4" transform="translate(1232,330)"/>
<path d="M0 0 C1.4540625 0.0309375 1.4540625 0.0309375 2.9375 0.0625 C2.6075 1.7125 2.2775 3.3625 1.9375 5.0625 C-0.0425 5.0625 -2.0225 5.0625 -4.0625 5.0625 C-4.0625 0.08290816 -4.0625 0.08290816 0 0 Z " fill="#EFEFEF" transform="translate(1151.0625,762.9375)"/>
<path d="M0 0 C1.67542976 0.28604898 3.34385343 0.61781233 5 1 C5 2.32 5 3.64 5 5 C2.36 5.33 -0.28 5.66 -3 6 C-1.125 1.125 -1.125 1.125 0 0 Z " fill="#E4E4E4" transform="translate(1149,755)"/>
<path d="M0 0 C1.4540625 0.0309375 1.4540625 0.0309375 2.9375 0.0625 C2.6075 1.7125 2.2775 3.3625 1.9375 5.0625 C-0.0425 5.0625 -2.0225 5.0625 -4.0625 5.0625 C-4.0625 0.08290816 -4.0625 0.08290816 0 0 Z " fill="#EFEFEF" transform="translate(1151.0625,675.9375)"/>
<path d="M0 0 C1.67542976 0.28604898 3.34385343 0.61781233 5 1 C5 2.32 5 3.64 5 5 C2.36 5.33 -0.28 5.66 -3 6 C-1.125 1.125 -1.125 1.125 0 0 Z " fill="#E4E4E4" transform="translate(1149,668)"/>
<path d="M0 0 C1.4540625 0.0309375 1.4540625 0.0309375 2.9375 0.0625 C2.9375 1.3825 2.9375 2.7025 2.9375 4.0625 C0.6275 4.3925 -1.6825 4.7225 -4.0625 5.0625 C-4.0625 0.08290816 -4.0625 0.08290816 0 0 Z " fill="#F5F5F5" transform="translate(1151.0625,849.9375)"/>
<path d="M0 0 C1.4540625 0.0309375 1.4540625 0.0309375 2.9375 0.0625 C2.9375 1.3825 2.9375 2.7025 2.9375 4.0625 C0.6275 4.3925 -1.6825 4.7225 -4.0625 5.0625 C-4.0625 0.08290816 -4.0625 0.08290816 0 0 Z " fill="#F5F5F5" transform="translate(1151.0625,588.9375)"/>
<path d="M0 0 C0 0.66 0 1.32 0 2 C0.99 2 1.98 2 3 2 C3.33 1.34 3.66 0.68 4 0 C4 0.99 4 1.98 4 3 C0.37 3 -3.26 3 -7 3 C-7 2.01 -7 1.02 -7 0 C-4.3333581 -1.33332095 -2.83319697 -0.67102033 0 0 Z " fill="#E0E0E0" transform="translate(1172,843)"/>
<path d="M0 0 C0 0.66 0 1.32 0 2 C0.99 2 1.98 2 3 2 C3.33 1.34 3.66 0.68 4 0 C4 0.99 4 1.98 4 3 C0.37 3 -3.26 3 -7 3 C-7 2.01 -7 1.02 -7 0 C-4.3333581 -1.33332095 -2.83319697 -0.67102033 0 0 Z " fill="#E0E0E0" transform="translate(1172,582)"/>
<path d="M0 0 C2.875 -0.1875 2.875 -0.1875 6 0 C8 3 8 3 8 7 C7.01 7 6.02 7 5 7 C4.67 5.68 4.34 4.36 4 3 C2.35 3 0.7 3 -1 3 C-0.67 2.01 -0.34 1.02 0 0 Z " fill="#7A7A7A" transform="translate(1219,437)"/>
<path d="M0 0 C-0.99 0.495 -0.99 0.495 -2 1 C-2 1.66 -2 2.32 -2 3 C-2.99 3.33 -3.98 3.66 -5 4 C-5.99 5.485 -5.99 5.485 -7 7 C-7.66 7 -8.32 7 -9 7 C-8.02086745 1.32103121 -5.73500486 -0.46500039 0 0 Z " fill="#868686" transform="translate(1170,436)"/>
<path d="M0 0 C2.31 0 4.62 0 7 0 C6.67 1.32 6.34 2.64 6 4 C4.35 3.67 2.7 3.34 1 3 C0.67 2.01 0.34 1.02 0 0 Z " fill="#E5E6E8" transform="translate(1217,445)"/>
<path d="M0 0 C1.65 0.33 3.3 0.66 5 1 C5 1.99 5 2.98 5 4 C2.69 4 0.38 4 -2 4 C-1.34 2.68 -0.68 1.36 0 0 Z " fill="#D7D8D9" transform="translate(1219,439)"/>
<path d="M0 0 C2.5654594 2.5654594 2.54046087 4.47686668 3 8 C1.35 8 -0.3 8 -2 8 C-1.34 5.36 -0.68 2.72 0 0 Z " fill="#EC6954" transform="translate(1845,435)"/>
<path d="M0 0 C0 2.97 0 5.94 0 9 C-0.66 9 -1.32 9 -2 9 C-3.625 6.5 -3.625 6.5 -5 4 C-1.125 0 -1.125 0 0 0 Z " fill="#C5D1E6" transform="translate(1317,330)"/>
<path d="M0 0 C2.02054804 1.64169528 4.02043058 3.30911778 6 5 C6 5.33 6 5.66 6 6 C4.02 6 2.04 6 0 6 C0 4.02 0 2.04 0 0 Z " fill="#F8F8F9" transform="translate(1309,310)"/>
<path d="M0 0 C1.98 0 3.96 0 6 0 C6 0.99 6 1.98 6 3 C3.69 3 1.38 3 -1 3 C-0.67 2.01 -0.34 1.02 0 0 Z " fill="#FCFCFC" transform="translate(1148,843)"/>
<path d="M0 0 C1.98 0 3.96 0 6 0 C6 0.99 6 1.98 6 3 C3.69 3 1.38 3 -1 3 C-0.67 2.01 -0.34 1.02 0 0 Z " fill="#FCFCFC" transform="translate(1148,582)"/>
<path d="M0 0 C0.66 0 1.32 0 2 0 C2.33 1.98 2.66 3.96 3 6 C1.68 6 0.36 6 -1 6 C-0.67 4.02 -0.34 2.04 0 0 Z " fill="#E2E3E5" transform="translate(1100,437)"/>
<path d="M0 0 C1.32 0.66 2.64 1.32 4 2 C4 2.66 4 3.32 4 4 C1.69 4 -0.62 4 -3 4 C-2.01 2.68 -1.02 1.36 0 0 Z " fill="#78B05E" transform="translate(1311,335)"/>
</svg>
